solid Exported from Blender-3.2.0
facet normal 0.000000 0.000000 -1.000000
outer loop
vertex -200.000000 100.000000 0.000000
vertex 400.000000 100.000000 0.000000
vertex -200.000000 -100.000000 0.000000
endloop
endfacet
facet normal 0.000000 0.000000 -1.000000
outer loop
vertex -200.000000 -100.000000 0.000000
vertex 400.000000 100.000000 0.000000
vertex 400.000000 -100.000000 0.000000
endloop
endfacet
facet normal -1.000000 0.000000 0.000000
outer loop
vertex -200.000000 100.000000 0.000000
vertex -200.000000 -100.000000 0.000000
vertex -200.000000 100.000000 17.000000
endloop
endfacet
facet normal -1.000000 0.000000 0.000000
outer loop
vertex -200.000000 100.000000 17.000000
vertex -200.000000 -100.000000 0.000000
vertex -200.000000 -100.000000 17.000000
endloop
endfacet
facet normal 1.000000 0.000000 0.000000
outer loop
vertex 400.000000 -100.000000 0.000000
vertex 400.000000 100.000000 0.000000
vertex 400.000000 -100.000000 17.000000
endloop
endfacet
facet normal 1.000000 0.000000 0.000000
outer loop
vertex 400.000000 -100.000000 17.000000
vertex 400.000000 100.000000 0.000000
vertex 400.000000 100.000000 17.000000
endloop
endfacet
facet normal 0.000000 -1.000000 0.000000
outer loop
vertex -200.000000 -100.000000 17.000000
vertex -200.000000 -100.000000 0.000000
vertex 400.000000 -100.000000 17.000000
endloop
endfacet
facet normal 0.000000 -1.000000 0.000000
outer loop
vertex 400.000000 -100.000000 17.000000
vertex -200.000000 -100.000000 0.000000
vertex 400.000000 -100.000000 0.000000
endloop
endfacet
facet normal 0.000000 1.000000 0.000000
outer loop
vertex 400.000000 100.000000 17.000000
vertex 400.000000 100.000000 0.000000
vertex -200.000000 100.000000 17.000000
endloop
endfacet
facet normal 0.000000 1.000000 0.000000
outer loop
vertex -200.000000 100.000000 17.000000
vertex 400.000000 100.000000 0.000000
vertex -200.000000 100.000000 0.000000
endloop
endfacet
facet normal 0.000000 -1.000000 0.000000
outer loop
vertex -200.000000 -100.000000 17.000000
vertex 400.000000 -100.000000 17.000000
vertex 400.000000 -100.000000 102.000000
endloop
endfacet
facet normal 0.000000 -1.000000 0.000000
outer loop
vertex -200.000000 -100.000000 17.000000
vertex 400.000000 -100.000000 102.000000
vertex -200.000000 -100.000000 102.000000
endloop
endfacet
facet normal 0.000000 1.000000 0.000000
outer loop
vertex 400.000000 100.000000 17.000000
vertex -200.000000 100.000000 17.000000
vertex -200.000000 100.000000 102.000000
endloop
endfacet
facet normal 0.000000 1.000000 0.000000
outer loop
vertex 400.000000 100.000000 17.000000
vertex -200.000000 100.000000 102.000000
vertex 400.000000 100.000000 102.000000
endloop
endfacet
endsolid Exported from Blender-3.2.0
