solid Exported from Blender-3.2.0
facet normal 0.098017 -0.000000 0.995185
outer loop
vertex 400.979736 95.841766 290.482300
vertex 400.979736 -96.115021 290.482239
vertex 422.727081 -96.115021 288.340363
endloop
endfacet
facet normal 0.098015 0.000000 0.995185
outer loop
vertex 400.979736 95.841766 290.482300
vertex 422.727081 -96.115021 288.340363
vertex 422.727081 95.841766 288.340363
endloop
endfacet
facet normal 0.290284 0.000000 0.956940
outer loop
vertex 422.727081 95.841766 288.340363
vertex 422.727081 -96.115021 288.340363
vertex 443.638733 -96.115021 281.996887
endloop
endfacet
facet normal 0.290286 0.000000 0.956940
outer loop
vertex 422.727081 95.841766 288.340363
vertex 443.638733 -96.115021 281.996887
vertex 443.638733 95.841766 281.996887
endloop
endfacet
facet normal 0.471398 0.000000 0.881921
outer loop
vertex 443.638733 95.841766 281.996887
vertex 443.638733 -96.115021 281.996887
vertex 462.911011 -96.115021 271.695618
endloop
endfacet
facet normal 0.471398 -0.000000 0.881921
outer loop
vertex 443.638733 95.841766 281.996887
vertex 462.911011 -96.115021 271.695618
vertex 462.911011 95.841766 271.695648
endloop
endfacet
facet normal 0.634392 0.000000 0.773011
outer loop
vertex 462.911011 95.841766 271.695648
vertex 462.911011 -96.115021 271.695618
vertex 479.803253 -96.115021 257.832489
endloop
endfacet
facet normal 0.634396 0.000000 0.773009
outer loop
vertex 462.911011 95.841766 271.695648
vertex 479.803253 -96.115021 257.832489
vertex 479.803253 95.841766 257.832489
endloop
endfacet
facet normal 0.773010 0.000000 0.634394
outer loop
vertex 479.803253 95.841766 257.832489
vertex 479.803253 -96.115021 257.832489
vertex 493.666412 -96.115021 240.940216
endloop
endfacet
facet normal 0.773010 0.000000 0.634394
outer loop
vertex 479.803253 95.841766 257.832489
vertex 493.666412 -96.115021 240.940216
vertex 493.666412 95.841766 240.940216
endloop
endfacet
facet normal 0.881921 0.000000 0.471396
outer loop
vertex 493.666412 95.841766 240.940216
vertex 493.666412 -96.115021 240.940216
vertex 503.967651 -96.115021 221.667953
endloop
endfacet
facet normal 0.881921 0.000000 0.471398
outer loop
vertex 493.666412 95.841766 240.940216
vertex 503.967651 -96.115021 221.667953
vertex 503.967651 95.841766 221.667969
endloop
endfacet
facet normal 0.956941 0.000000 0.290283
outer loop
vertex 503.967651 95.841766 221.667969
vertex 503.967651 -96.115021 221.667953
vertex 510.311096 -96.115021 200.756332
endloop
endfacet
facet normal 0.956941 0.000000 0.290283
outer loop
vertex 503.967651 95.841766 221.667969
vertex 510.311096 -96.115021 200.756332
vertex 510.311096 95.841766 200.756332
endloop
endfacet
facet normal 0.995185 0.000000 0.098019
outer loop
vertex 510.311096 95.841766 200.756332
vertex 510.311096 -96.115021 200.756332
vertex 512.453064 -96.115021 179.008957
endloop
endfacet
facet normal 0.995184 -0.000000 0.098019
outer loop
vertex 510.311096 95.841766 200.756332
vertex 512.453064 -96.115021 179.008957
vertex 512.453064 95.841766 179.008972
endloop
endfacet
facet normal 0.995185 0.000000 -0.098019
outer loop
vertex 512.453064 95.841766 179.008972
vertex 512.453064 -96.115021 179.008957
vertex 510.311096 -96.115021 157.261597
endloop
endfacet
facet normal 0.995185 0.000000 -0.098019
outer loop
vertex 512.453064 95.841766 179.008972
vertex 510.311096 -96.115021 157.261597
vertex 510.311096 95.841766 157.261612
endloop
endfacet
facet normal 0.956941 0.000000 -0.290283
outer loop
vertex 510.311096 95.841766 157.261612
vertex 510.311096 -96.115021 157.261597
vertex 503.967651 -96.115021 136.349976
endloop
endfacet
facet normal 0.956941 0.000000 -0.290284
outer loop
vertex 510.311096 95.841766 157.261612
vertex 503.967651 -96.115021 136.349976
vertex 503.967651 95.841766 136.350006
endloop
endfacet
facet normal 0.881921 0.000000 -0.471397
outer loop
vertex 503.967651 95.841766 136.350006
vertex 503.967651 -96.115021 136.349976
vertex 493.666412 -96.115021 117.077721
endloop
endfacet
facet normal 0.881921 0.000000 -0.471397
outer loop
vertex 503.967651 95.841766 136.350006
vertex 493.666412 -96.115021 117.077721
vertex 493.666412 95.841766 117.077728
endloop
endfacet
facet normal 0.773010 0.000000 -0.634393
outer loop
vertex 493.666412 95.841766 117.077728
vertex 493.666412 -96.115021 117.077721
vertex 479.803253 -96.115021 100.185432
endloop
endfacet
facet normal 0.773010 -0.000000 -0.634394
outer loop
vertex 493.666412 95.841766 117.077728
vertex 479.803253 -96.115021 100.185432
vertex 479.803253 95.841766 100.185448
endloop
endfacet
facet normal 0.634392 0.000000 -0.773011
outer loop
vertex 479.803253 95.841766 100.185448
vertex 479.803253 -96.115021 100.185432
vertex 462.910950 -96.115021 86.322296
endloop
endfacet
facet normal 0.634394 -0.000000 -0.773010
outer loop
vertex 479.803253 95.841766 100.185448
vertex 462.910950 -96.115021 86.322296
vertex 462.910950 95.841766 86.322304
endloop
endfacet
facet normal 0.471398 0.000000 -0.881921
outer loop
vertex 462.910950 95.841766 86.322304
vertex 462.910950 -96.115021 86.322296
vertex 443.638733 -96.115021 76.021057
endloop
endfacet
facet normal 0.471397 0.000000 -0.881921
outer loop
vertex 462.910950 95.841766 86.322304
vertex 443.638733 -96.115021 76.021057
vertex 443.638733 95.841766 76.021072
endloop
endfacet
facet normal 0.290285 0.000000 -0.956940
outer loop
vertex 443.638733 95.841766 76.021072
vertex 443.638733 -96.115021 76.021057
vertex 422.727081 -96.115021 69.677582
endloop
endfacet
facet normal 0.290285 0.000000 -0.956940
outer loop
vertex 443.638733 95.841766 76.021072
vertex 422.727081 -96.115021 69.677582
vertex 422.727081 95.841766 69.677597
endloop
endfacet
facet normal 0.098017 0.000000 -0.995185
outer loop
vertex 422.727081 95.841766 69.677597
vertex 422.727081 -96.115021 69.677582
vertex 400.979736 -96.115021 67.535652
endloop
endfacet
facet normal 0.098017 0.000000 -0.995185
outer loop
vertex 422.727081 95.841766 69.677597
vertex 400.979736 -96.115021 67.535652
vertex 400.979736 95.841766 67.535675
endloop
endfacet
facet normal -0.098017 0.000000 -0.995185
outer loop
vertex 400.979736 95.841766 67.535675
vertex 400.979736 -96.115021 67.535652
vertex 379.232391 -96.115021 69.677582
endloop
endfacet
facet normal -0.098017 0.000000 -0.995185
outer loop
vertex 400.979736 95.841766 67.535675
vertex 379.232391 -96.115021 69.677582
vertex 379.232391 95.841766 69.677597
endloop
endfacet
facet normal -0.290285 0.000000 -0.956940
outer loop
vertex 379.232391 95.841766 69.677597
vertex 379.232391 -96.115021 69.677582
vertex 358.320740 -96.115021 76.021057
endloop
endfacet
facet normal -0.290285 0.000000 -0.956940
outer loop
vertex 379.232391 95.841766 69.677597
vertex 358.320740 -96.115021 76.021057
vertex 358.320740 95.841766 76.021072
endloop
endfacet
facet normal -0.471397 0.000000 -0.881921
outer loop
vertex 358.320740 95.841766 76.021072
vertex 358.320740 -96.115021 76.021057
vertex 339.048492 -96.115021 86.322304
endloop
endfacet
facet normal -0.471397 0.000000 -0.881921
outer loop
vertex 358.320740 95.841766 76.021072
vertex 339.048492 -96.115021 86.322304
vertex 339.048492 95.841766 86.322319
endloop
endfacet
facet normal -0.634392 0.000000 -0.773011
outer loop
vertex 339.048492 95.841766 86.322319
vertex 339.048492 -96.115021 86.322304
vertex 322.156189 -96.115021 100.185425
endloop
endfacet
facet normal -0.634392 0.000000 -0.773012
outer loop
vertex 339.048492 95.841766 86.322319
vertex 322.156189 -96.115021 100.185425
vertex 322.156189 95.841766 100.185440
endloop
endfacet
facet normal -0.773011 0.000000 -0.634392
outer loop
vertex 322.156189 95.841766 100.185440
vertex 322.156189 -96.115021 100.185425
vertex 308.293091 -96.115021 117.077690
endloop
endfacet
facet normal -0.773011 0.000000 -0.634392
outer loop
vertex 322.156189 95.841766 100.185440
vertex 308.293091 -96.115021 117.077690
vertex 308.293091 95.841766 117.077705
endloop
endfacet
facet normal -0.881921 0.000000 -0.471398
outer loop
vertex 308.293091 95.841766 117.077705
vertex 308.293091 -96.115021 117.077690
vertex 297.991821 -96.115021 136.349960
endloop
endfacet
facet normal -0.881921 -0.000000 -0.471397
outer loop
vertex 308.293091 95.841766 117.077705
vertex 297.991821 -96.115021 136.349960
vertex 297.991821 95.841766 136.349976
endloop
endfacet
facet normal -0.956940 0.000000 -0.290285
outer loop
vertex 297.991821 95.841766 136.349976
vertex 297.991821 -96.115021 136.349960
vertex 291.648346 -96.115021 157.261581
endloop
endfacet
facet normal -0.956940 -0.000000 -0.290285
outer loop
vertex 297.991821 95.841766 136.349976
vertex 291.648346 -96.115021 157.261581
vertex 291.648346 95.841766 157.261597
endloop
endfacet
facet normal -0.995185 0.000000 -0.098018
outer loop
vertex 291.648346 95.841766 157.261597
vertex 291.648346 -96.115021 157.261581
vertex 289.506409 -96.115021 179.008972
endloop
endfacet
facet normal -0.995185 -0.000000 -0.098017
outer loop
vertex 291.648346 95.841766 157.261597
vertex 289.506409 -96.115021 179.008972
vertex 289.506409 95.841766 179.008987
endloop
endfacet
facet normal -0.995185 0.000000 0.098018
outer loop
vertex 289.506409 95.841766 179.008987
vertex 289.506409 -96.115021 179.008972
vertex 291.648346 -96.115021 200.756332
endloop
endfacet
facet normal -0.995185 -0.000000 0.098018
outer loop
vertex 289.506409 95.841766 179.008987
vertex 291.648346 -96.115021 200.756332
vertex 291.648346 95.841766 200.756348
endloop
endfacet
facet normal -0.956940 0.000000 0.290285
outer loop
vertex 291.648346 95.841766 200.756348
vertex 291.648346 -96.115021 200.756332
vertex 297.991821 -96.115021 221.667969
endloop
endfacet
facet normal -0.956940 -0.000000 0.290285
outer loop
vertex 291.648346 95.841766 200.756348
vertex 297.991821 -96.115021 221.667969
vertex 297.991821 95.841766 221.667984
endloop
endfacet
facet normal -0.881921 -0.000000 0.471397
outer loop
vertex 297.991821 95.841766 221.667984
vertex 297.991821 -96.115021 221.667969
vertex 308.293060 -96.115021 240.940201
endloop
endfacet
facet normal -0.881921 0.000000 0.471398
outer loop
vertex 297.991821 95.841766 221.667984
vertex 308.293060 -96.115021 240.940201
vertex 308.293060 95.841766 240.940201
endloop
endfacet
facet normal -0.773010 0.000000 0.634393
outer loop
vertex 308.293060 95.841766 240.940201
vertex 308.293060 -96.115021 240.940201
vertex 322.156189 -96.115021 257.832458
endloop
endfacet
facet normal -0.773010 -0.000000 0.634393
outer loop
vertex 308.293060 95.841766 240.940201
vertex 322.156189 -96.115021 257.832458
vertex 322.156189 95.841766 257.832489
endloop
endfacet
facet normal -0.634393 0.000000 0.773011
outer loop
vertex 322.156189 95.841766 257.832489
vertex 322.156189 -96.115021 257.832458
vertex 339.048492 -96.115021 271.695618
endloop
endfacet
facet normal -0.634393 -0.000000 0.773011
outer loop
vertex 322.156189 95.841766 257.832489
vertex 339.048492 -96.115021 271.695618
vertex 339.048492 95.841766 271.695648
endloop
endfacet
facet normal -0.471398 -0.000000 0.881921
outer loop
vertex 339.048492 95.841766 271.695648
vertex 339.048492 -96.115021 271.695618
vertex 358.320740 -96.115021 281.996887
endloop
endfacet
facet normal -0.471398 0.000000 0.881921
outer loop
vertex 339.048492 95.841766 271.695648
vertex 358.320740 -96.115021 281.996887
vertex 358.320740 95.841766 281.996887
endloop
endfacet
facet normal 0.000000 -1.000000 0.000000
outer loop
vertex 443.638733 -96.115021 281.996887
vertex 422.727081 -96.115021 288.340363
vertex 400.979736 -96.115021 290.482239
endloop
endfacet
facet normal 0.000000 -1.000000 0.000000
outer loop
vertex 400.979736 -96.115021 290.482239
vertex 379.232391 -96.115021 288.340363
vertex 358.320740 -96.115021 281.996887
endloop
endfacet
facet normal 0.000000 -1.000000 0.000000
outer loop
vertex 358.320740 -96.115021 281.996887
vertex 339.048492 -96.115021 271.695618
vertex 322.156189 -96.115021 257.832458
endloop
endfacet
facet normal 0.000000 -1.000000 -0.000004
outer loop
vertex 322.156189 -96.115021 257.832458
vertex 308.293060 -96.115021 240.940201
vertex 297.991821 -96.115021 221.667969
endloop
endfacet
facet normal 0.000000 -1.000000 0.000001
outer loop
vertex 297.991821 -96.115021 221.667969
vertex 291.648346 -96.115021 200.756332
vertex 289.506409 -96.115021 179.008972
endloop
endfacet
facet normal 0.000000 -1.000000 0.000000
outer loop
vertex 289.506409 -96.115021 179.008972
vertex 291.648346 -96.115021 157.261581
vertex 297.991821 -96.115021 136.349960
endloop
endfacet
facet normal 0.000000 -1.000000 0.000003
outer loop
vertex 297.991821 -96.115021 136.349960
vertex 308.293091 -96.115021 117.077690
vertex 322.156189 -96.115021 100.185425
endloop
endfacet
facet normal 0.000000 -1.000000 0.000000
outer loop
vertex 322.156189 -96.115021 100.185425
vertex 339.048492 -96.115021 86.322304
vertex 358.320740 -96.115021 76.021057
endloop
endfacet
facet normal 0.000000 -1.000000 0.000000
outer loop
vertex 358.320740 -96.115021 76.021057
vertex 379.232391 -96.115021 69.677582
vertex 400.979736 -96.115021 67.535652
endloop
endfacet
facet normal 0.000000 -1.000000 0.000000
outer loop
vertex 400.979736 -96.115021 67.535652
vertex 422.727081 -96.115021 69.677582
vertex 443.638733 -96.115021 76.021057
endloop
endfacet
facet normal 0.000000 -1.000000 0.000000
outer loop
vertex 443.638733 -96.115021 76.021057
vertex 462.910950 -96.115021 86.322296
vertex 479.803253 -96.115021 100.185432
endloop
endfacet
facet normal 0.000000 -1.000000 0.000004
outer loop
vertex 479.803253 -96.115021 100.185432
vertex 493.666412 -96.115021 117.077721
vertex 503.967651 -96.115021 136.349976
endloop
endfacet
facet normal 0.000000 -1.000000 -0.000001
outer loop
vertex 503.967651 -96.115021 136.349976
vertex 510.311096 -96.115021 157.261597
vertex 512.453064 -96.115021 179.008957
endloop
endfacet
facet normal 0.000000 -1.000000 0.000000
outer loop
vertex 512.453064 -96.115021 179.008957
vertex 510.311096 -96.115021 200.756332
vertex 503.967651 -96.115021 221.667953
endloop
endfacet
facet normal 0.000000 -1.000000 -0.000003
outer loop
vertex 503.967651 -96.115021 221.667953
vertex 493.666412 -96.115021 240.940216
vertex 479.803253 -96.115021 257.832489
endloop
endfacet
facet normal 0.000000 -1.000000 0.000000
outer loop
vertex 479.803253 -96.115021 257.832489
vertex 462.911011 -96.115021 271.695618
vertex 443.638733 -96.115021 281.996887
endloop
endfacet
facet normal 0.000000 -1.000000 0.000000
outer loop
vertex 443.638733 -96.115021 281.996887
vertex 400.979736 -96.115021 290.482239
vertex 358.320740 -96.115021 281.996887
endloop
endfacet
facet normal 0.000000 -1.000000 0.000000
outer loop
vertex 358.320740 -96.115021 281.996887
vertex 322.156189 -96.115021 257.832458
vertex 297.991821 -96.115021 221.667969
endloop
endfacet
facet normal 0.000000 -1.000000 0.000000
outer loop
vertex 297.991821 -96.115021 221.667969
vertex 289.506409 -96.115021 179.008972
vertex 297.991821 -96.115021 136.349960
endloop
endfacet
facet normal 0.000000 -1.000000 0.000000
outer loop
vertex 297.991821 -96.115021 136.349960
vertex 322.156189 -96.115021 100.185425
vertex 358.320740 -96.115021 76.021057
endloop
endfacet
facet normal 0.000000 -1.000000 0.000000
outer loop
vertex 358.320740 -96.115021 76.021057
vertex 400.979736 -96.115021 67.535652
vertex 443.638733 -96.115021 76.021057
endloop
endfacet
facet normal 0.000000 -1.000000 0.000000
outer loop
vertex 443.638733 -96.115021 76.021057
vertex 479.803253 -96.115021 100.185432
vertex 503.967651 -96.115021 136.349976
endloop
endfacet
facet normal 0.000000 -1.000000 0.000000
outer loop
vertex 503.967651 -96.115021 136.349976
vertex 512.453064 -96.115021 179.008957
vertex 503.967651 -96.115021 221.667953
endloop
endfacet
facet normal 0.000000 -1.000000 0.000000
outer loop
vertex 503.967651 -96.115021 221.667953
vertex 479.803253 -96.115021 257.832489
vertex 443.638733 -96.115021 281.996887
endloop
endfacet
facet normal 0.000000 -1.000000 -0.000000
outer loop
vertex 443.638733 -96.115021 281.996887
vertex 358.320740 -96.115021 281.996887
vertex 297.991821 -96.115021 221.667969
endloop
endfacet
facet normal 0.000000 -1.000000 0.000000
outer loop
vertex 297.991821 -96.115021 221.667969
vertex 297.991821 -96.115021 136.349960
vertex 358.320740 -96.115021 76.021057
endloop
endfacet
facet normal 0.000000 -1.000000 0.000000
outer loop
vertex 358.320740 -96.115021 76.021057
vertex 443.638733 -96.115021 76.021057
vertex 503.967651 -96.115021 136.349976
endloop
endfacet
facet normal 0.000000 -1.000000 0.000000
outer loop
vertex 503.967651 -96.115021 136.349976
vertex 503.967651 -96.115021 221.667953
vertex 443.638733 -96.115021 281.996887
endloop
endfacet
facet normal 0.000000 -1.000000 0.000000
outer loop
vertex 443.638733 -96.115021 281.996887
vertex 297.991821 -96.115021 221.667969
vertex 358.320740 -96.115021 76.021057
endloop
endfacet
facet normal 0.000000 -1.000000 -0.000000
outer loop
vertex 358.320740 -96.115021 76.021057
vertex 503.967651 -96.115021 136.349976
vertex 443.638733 -96.115021 281.996887
endloop
endfacet
facet normal -0.290286 0.000000 0.956940
outer loop
vertex 358.320740 95.841766 281.996887
vertex 358.320740 -96.115021 281.996887
vertex 379.232391 -96.115021 288.340363
endloop
endfacet
facet normal -0.290284 0.000000 0.956941
outer loop
vertex 358.320740 95.841766 281.996887
vertex 379.232391 -96.115021 288.340363
vertex 379.232391 95.841766 288.340363
endloop
endfacet
facet normal -0.098015 0.000000 0.995185
outer loop
vertex 379.232391 95.841766 288.340363
vertex 379.232391 -96.115021 288.340363
vertex 400.979736 -96.115021 290.482239
endloop
endfacet
facet normal -0.098017 -0.000000 0.995185
outer loop
vertex 379.232391 95.841766 288.340363
vertex 400.979736 -96.115021 290.482239
vertex 400.979736 95.841766 290.482300
endloop
endfacet
facet normal 0.000000 1.000000 0.000000
outer loop
vertex 379.232391 95.841766 288.340363
vertex 400.979736 95.841766 290.482300
vertex 422.727081 95.841766 288.340363
endloop
endfacet
facet normal 0.000000 1.000000 0.000003
outer loop
vertex 422.727081 95.841766 288.340363
vertex 443.638733 95.841766 281.996887
vertex 462.911011 95.841766 271.695648
endloop
endfacet
facet normal 0.000000 1.000000 0.000003
outer loop
vertex 462.911011 95.841766 271.695648
vertex 479.803253 95.841766 257.832489
vertex 493.666412 95.841766 240.940216
endloop
endfacet
facet normal 0.000000 1.000000 -0.000001
outer loop
vertex 493.666412 95.841766 240.940216
vertex 503.967651 95.841766 221.667969
vertex 510.311096 95.841766 200.756332
endloop
endfacet
facet normal 0.000000 1.000000 0.000000
outer loop
vertex 510.311096 95.841766 200.756332
vertex 512.453064 95.841766 179.008972
vertex 510.311096 95.841766 157.261612
endloop
endfacet
facet normal 0.000000 1.000000 0.000001
outer loop
vertex 510.311096 95.841766 157.261612
vertex 503.967651 95.841766 136.350006
vertex 493.666412 95.841766 117.077728
endloop
endfacet
facet normal 0.000000 1.000000 -0.000003
outer loop
vertex 493.666412 95.841766 117.077728
vertex 479.803253 95.841766 100.185448
vertex 462.910950 95.841766 86.322304
endloop
endfacet
facet normal 0.000000 1.000000 -0.000003
outer loop
vertex 462.910950 95.841766 86.322304
vertex 443.638733 95.841766 76.021072
vertex 422.727081 95.841766 69.677597
endloop
endfacet
facet normal 0.000000 1.000000 0.000000
outer loop
vertex 422.727081 95.841766 69.677597
vertex 400.979736 95.841766 67.535675
vertex 379.232391 95.841766 69.677597
endloop
endfacet
facet normal 0.000000 1.000000 -0.000003
outer loop
vertex 379.232391 95.841766 69.677597
vertex 358.320740 95.841766 76.021072
vertex 339.048492 95.841766 86.322319
endloop
endfacet
facet normal 0.000000 1.000000 -0.000003
outer loop
vertex 339.048492 95.841766 86.322319
vertex 322.156189 95.841766 100.185440
vertex 308.293091 95.841766 117.077705
endloop
endfacet
facet normal 0.000000 1.000000 0.000001
outer loop
vertex 308.293091 95.841766 117.077705
vertex 297.991821 95.841766 136.349976
vertex 291.648346 95.841766 157.261597
endloop
endfacet
facet normal 0.000000 1.000000 0.000000
outer loop
vertex 291.648346 95.841766 157.261597
vertex 289.506409 95.841766 179.008987
vertex 291.648346 95.841766 200.756348
endloop
endfacet
facet normal 0.000000 1.000000 -0.000001
outer loop
vertex 291.648346 95.841766 200.756348
vertex 297.991821 95.841766 221.667984
vertex 308.293060 95.841766 240.940201
endloop
endfacet
facet normal 0.000000 1.000000 0.000003
outer loop
vertex 308.293060 95.841766 240.940201
vertex 322.156189 95.841766 257.832489
vertex 339.048492 95.841766 271.695648
endloop
endfacet
facet normal 0.000000 1.000000 0.000003
outer loop
vertex 339.048492 95.841766 271.695648
vertex 358.320740 95.841766 281.996887
vertex 379.232391 95.841766 288.340363
endloop
endfacet
facet normal 0.000000 1.000000 0.000000
outer loop
vertex 379.232391 95.841766 288.340363
vertex 422.727081 95.841766 288.340363
vertex 462.911011 95.841766 271.695648
endloop
endfacet
facet normal 0.000000 1.000000 -0.000001
outer loop
vertex 462.911011 95.841766 271.695648
vertex 493.666412 95.841766 240.940216
vertex 510.311096 95.841766 200.756332
endloop
endfacet
facet normal 0.000000 1.000000 0.000000
outer loop
vertex 510.311096 95.841766 200.756332
vertex 510.311096 95.841766 157.261612
vertex 493.666412 95.841766 117.077728
endloop
endfacet
facet normal 0.000000 1.000000 0.000001
outer loop
vertex 493.666412 95.841766 117.077728
vertex 462.910950 95.841766 86.322304
vertex 422.727081 95.841766 69.677597
endloop
endfacet
facet normal 0.000000 1.000000 0.000000
outer loop
vertex 422.727081 95.841766 69.677597
vertex 379.232391 95.841766 69.677597
vertex 339.048492 95.841766 86.322319
endloop
endfacet
facet normal 0.000000 1.000000 0.000001
outer loop
vertex 339.048492 95.841766 86.322319
vertex 308.293091 95.841766 117.077705
vertex 291.648346 95.841766 157.261597
endloop
endfacet
facet normal 0.000000 1.000000 0.000000
outer loop
vertex 291.648346 95.841766 157.261597
vertex 291.648346 95.841766 200.756348
vertex 308.293060 95.841766 240.940201
endloop
endfacet
facet normal 0.000000 1.000000 -0.000001
outer loop
vertex 308.293060 95.841766 240.940201
vertex 339.048492 95.841766 271.695648
vertex 379.232391 95.841766 288.340363
endloop
endfacet
facet normal 0.000000 1.000000 0.000000
outer loop
vertex 379.232391 95.841766 288.340363
vertex 462.911011 95.841766 271.695648
vertex 510.311096 95.841766 200.756332
endloop
endfacet
facet normal 0.000000 1.000000 -0.000000
outer loop
vertex 510.311096 95.841766 200.756332
vertex 493.666412 95.841766 117.077728
vertex 422.727081 95.841766 69.677597
endloop
endfacet
facet normal 0.000000 1.000000 0.000000
outer loop
vertex 422.727081 95.841766 69.677597
vertex 339.048492 95.841766 86.322319
vertex 291.648346 95.841766 157.261597
endloop
endfacet
facet normal 0.000000 1.000000 0.000000
outer loop
vertex 291.648346 95.841766 157.261597
vertex 308.293060 95.841766 240.940201
vertex 379.232391 95.841766 288.340363
endloop
endfacet
facet normal 0.000000 1.000000 0.000000
outer loop
vertex 379.232391 95.841766 288.340363
vertex 510.311096 95.841766 200.756332
vertex 422.727081 95.841766 69.677597
endloop
endfacet
facet normal 0.000000 1.000000 -0.000000
outer loop
vertex 422.727081 95.841766 69.677597
vertex 291.648346 95.841766 157.261597
vertex 379.232391 95.841766 288.340363
endloop
endfacet
endsolid Exported from Blender-3.2.0
